# xmcd CD database file
#
# Track frame offsets:
#	150
#	9770
#	28078
#	41903
#	65895
#	77430
#	95610
#	108218
#	126240
#	144053
#	163838
#
# Disc length: 2393 seconds
#
# Revision: 0
# Processed by: cddbd v1.5PL3 Copyright (c) Steve Scherf et al.
# Submitted via: CDex 1.51
#
DISCID=8909570b
DTITLE=Frankie Lee, Doug Newby and The Bluzblasters - Sooner or Later
DYEAR=1992
DGENRE=Blues
TTITLE0=Leave My Woman Alone
TTITLE1=Full Time Lover
TTITLE2=What You Gonna Do? 
TTITLE3=Face It
TTITLE4=Don't Lie
TTITLE5=Taxi Blues
TTITLE6=Sooner or Later
TTITLE7=Before You Criticize me
TTITLE8=Can't Take No More
TTITLE9=Cold Out Here
TTITLE10=Doug's Stomp
EXTD=YEAR: 1992
EXTT0=
EXTT1=
EXTT2=
EXTT3=
EXTT4=
EXTT5=
EXTT6=
EXTT7=
EXTT8=
EXTT9=
EXTT10=
PLAYORDER=
